<?xml version="1.0" standalone="no"?>
<!DOCTYPE svg PUBLIC "-//W3C//DTD SVG 20010904//EN"
 "http://www.w3.org/TR/2001/REC-SVG-20010904/DTD/svg10.dtd">
<svg version="1.0" xmlns="http://www.w3.org/2000/svg"
 width="260.000000pt" height="260.000000pt" viewBox="0 0 260.000000 260.000000"
 preserveAspectRatio="xMidYMid meet">
<metadata>
Created by potrace 1.11, written by Peter Selinger 2001-2013
</metadata>
<g transform="translate(0.000000,260.000000) scale(0.100000,-0.100000)"
fill="#000000" stroke="none">
<path d="M0 1300 l0 -1300 1300 0 1300 0 0 1300 0 1300 -1300 0 -1300 0 0
-1300z m1212 477 c67 -33 111 -80 147 -157 37 -78 37 -191 0 -270 -33 -68 -88
-124 -145 -146 -24 -9 -44 -20 -44 -23 0 -4 44 -77 98 -162 53 -85 108 -171
121 -191 l23 -38 -54 0 -54 0 -120 190 -119 189 -152 1 -153 0 0 -190 0 -190
-50 0 -50 0 0 511 0 510 248 -3 247 -3 57 -28z m934 1 c181 -95 231 -342 101
-500 -24 -28 -64 -62 -92 -77 -48 -25 -57 -26 -252 -29 l-203 -3 0 -190 0
-189 -50 0 -50 0 0 511 0 511 248 -4 c246 -3 247 -3 298 -30z"/>
<path d="M760 1490 l0 -240 163 0 c180 1 236 10 283 45 47 36 84 117 84 184 0
86 -16 128 -69 181 -61 61 -101 70 -306 70 l-155 0 0 -240z"/>
<path d="M1700 1489 l0 -241 188 4 c209 4 226 8 281 75 114 138 45 362 -121
394 -24 4 -112 8 -195 9 l-153 0 0 -241z"/>
</g>
</svg>
