<?xml version="1.0" standalone="no"?>
<!DOCTYPE svg PUBLIC "-//W3C//DTD SVG 20010904//EN"
 "http://www.w3.org/TR/2001/REC-SVG-20010904/DTD/svg10.dtd">
<svg version="1.0" xmlns="http://www.w3.org/2000/svg"
 width="508.000000pt" height="508.000000pt" viewBox="0 0 508.000000 508.000000"
 preserveAspectRatio="xMidYMid meet">
<metadata>
Created by potrace 1.11, written by Peter Selinger 2001-2013
</metadata>
<g transform="translate(0.000000,508.000000) scale(0.100000,-0.100000)"
fill="#000000" stroke="none">
<path d="M1355 4171 c-6 -5 -39 -12 -75 -16 -36 -3 -74 -9 -85 -12 -17 -5 -18
-4 -7 10 12 14 11 15 -16 8 -107 -31 -170 -95 -203 -204 -7 -26 -6 -27 8 -15
14 11 16 11 11 -3 -4 -10 -10 -49 -14 -88 -3 -39 -11 -74 -15 -77 -5 -3 -9
-37 -9 -75 0 -44 4 -68 10 -64 6 4 10 -20 10 -64 0 -38 -4 -73 -10 -76 -5 -3
-10 -38 -10 -76 0 -44 4 -68 10 -64 6 4 10 -20 10 -64 0 -38 -4 -73 -10 -76
-5 -3 -10 -38 -10 -76 0 -44 4 -68 10 -64 6 4 10 -20 10 -64 0 -38 -4 -73 -10
-76 -5 -3 -10 -40 -10 -81 0 -48 4 -73 10 -69 6 4 10 -20 10 -64 0 -38 -4 -73
-10 -76 -5 -3 -10 -38 -10 -76 0 -44 4 -68 10 -64 6 4 10 -20 10 -64 0 -38 -4
-73 -10 -76 -5 -3 -10 -38 -10 -76 0 -44 4 -68 10 -64 6 4 10 -20 10 -64 0
-38 -4 -73 -10 -76 -5 -3 -10 -38 -10 -76 0 -44 4 -68 10 -64 6 4 10 -21 10
-69 0 -41 -5 -78 -10 -81 -5 -3 -10 -38 -10 -76 0 -44 4 -68 10 -64 6 4 10
-20 10 -64 0 -38 -5 -73 -10 -76 -6 -3 -10 -38 -10 -76 0 -39 4 -68 9 -65 12
8 24 -94 15 -128 -8 -34 22 -107 41 -99 8 2 19 -5 25 -17 6 -11 16 -17 22 -14
7 4 8 3 4 -5 -4 -6 0 -14 9 -17 11 -5 13 -10 5 -19 -15 -18 77 -61 100 -48 14
9 40 8 95 -2 11 -2 24 -4 28 -4 5 -1 5 -5 2 -11 -4 -6 20 -10 64 -10 38 0 73
5 76 10 3 6 38 10 76 10 44 0 68 -4 64 -10 -4 -6 20 -10 64 -10 38 0 73 4 76
10 3 5 38 10 76 10 44 0 68 -4 64 -10 -4 -6 20 -10 64 -10 38 0 73 5 76 10 3
6 40 10 81 10 48 0 73 -4 69 -10 -4 -6 20 -10 64 -10 38 0 73 4 76 10 3 5 38
10 76 10 44 0 68 -4 64 -10 -4 -6 20 -10 64 -10 38 0 73 5 76 10 3 6 38 10 76
10 44 0 68 -4 64 -10 -4 -6 20 -10 64 -10 38 0 73 5 76 10 3 6 38 10 76 10 44
0 68 -4 64 -10 -4 -6 21 -10 69 -10 41 0 78 5 81 10 3 6 38 10 76 10 44 0 68
-4 64 -10 -4 -6 20 -10 64 -10 38 0 73 5 76 10 3 6 38 10 76 10 44 0 68 -4 64
-10 -8 -13 127 -14 140 -1 16 15 159 25 150 10 -6 -9 1 -10 28 -5 91 17 163
69 202 146 28 54 44 127 26 116 -14 -9 -4 133 10 148 13 14 12 149 -1 141 -6
-4 -10 20 -10 64 0 38 4 73 10 76 6 3 10 38 10 76 0 44 -4 68 -10 64 -6 -4
-10 20 -10 64 0 38 4 73 10 76 6 3 10 40 10 81 0 48 -4 73 -10 69 -6 -4 -10
20 -10 64 0 38 5 73 10 76 6 3 10 38 10 76 0 44 -4 68 -10 64 -6 -4 -10 20
-10 64 0 38 4 73 10 76 6 3 10 38 10 76 0 44 -4 68 -10 64 -6 -4 -10 20 -10
64 0 38 4 73 10 76 6 3 10 38 10 76 0 44 -4 68 -10 64 -6 -4 -10 21 -10 69 0
41 5 78 10 81 6 3 10 38 10 76 0 44 -4 68 -10 64 -6 -4 -10 20 -10 64 0 38 4
73 10 76 6 3 10 38 10 76 0 44 -4 68 -10 64 -6 -4 -10 20 -10 64 0 38 5 73 10
76 6 3 10 38 10 76 0 44 -4 68 -10 64 -5 -3 -10 0 -11 7 0 7 -4 34 -8 60 -5
29 -4 51 2 57 7 7 3 27 -13 61 -13 28 -27 47 -32 42 -11 -11 -81 54 -73 68 11
17 -60 38 -121 35 -68 -4 -116 3 -108 16 3 5 -26 9 -65 9 -38 0 -73 -4 -76
-10 -3 -5 -38 -10 -76 -10 -44 0 -68 4 -64 10 4 6 -20 10 -64 10 -38 0 -73 -4
-76 -10 -3 -5 -40 -10 -81 -10 -48 0 -73 4 -69 10 4 6 -20 10 -64 10 -38 0
-73 -4 -76 -10 -3 -5 -38 -10 -76 -10 -44 0 -68 4 -64 10 4 6 -20 10 -64 10
-38 0 -73 -4 -76 -10 -3 -5 -38 -10 -76 -10 -44 0 -68 4 -64 10 4 6 -20 10
-64 10 -38 0 -73 -4 -76 -10 -3 -5 -38 -10 -76 -10 -44 0 -68 4 -64 10 4 6
-21 10 -69 10 -41 0 -78 -4 -81 -10 -3 -5 -38 -10 -76 -10 -44 0 -68 4 -64 10
4 6 -20 10 -64 10 -38 0 -73 -4 -76 -10 -3 -5 -38 -10 -76 -10 -44 0 -68 4
-64 10 4 6 -20 10 -64 10 -38 0 -73 -4 -76 -10 -3 -5 -38 -10 -76 -10 -44 0
-68 4 -64 10 8 13 -127 14 -140 1z m478 -338 c-7 -2 -21 -2 -30 0 -10 3 -4 5
12 5 17 0 24 -2 18 -5z m2000 0 c-7 -2 -21 -2 -30 0 -10 3 -4 5 12 5 17 0 24
-2 18 -5z m-1703 -67 c0 -3 -4 -8 -10 -11 -5 -3 -10 -1 -10 4 0 6 5 11 10 11
6 0 10 -2 10 -4z m-163 -102 c-3 -3 -12 -4 -19 -1 -8 3 -5 6 6 6 11 1 17 -2
13 -5z m2000 0 c-3 -3 -12 -4 -19 -1 -8 3 -5 6 6 6 11 1 17 -2 13 -5z m-2847
-110 c0 -8 -5 -12 -10 -9 -6 4 -8 11 -5 16 9 14 15 11 15 -7z m2000 0 c0 -8
-5 -12 -10 -9 -6 4 -8 11 -5 16 9 14 15 11 15 -7z m-890 -58 c0 -3 -4 -8 -10
-11 -5 -3 -10 -1 -10 4 0 6 5 11 10 11 6 0 10 -2 10 -4z m-2 -110 c24 -3 61
-16 83 -26 21 -11 39 -18 39 -15 0 3 13 -8 30 -25 16 -16 35 -30 41 -30 7 0
10 -3 7 -6 -4 -3 3 -25 13 -50 30 -67 28 -171 -5 -238 -25 -51 -97 -128 -125
-134 -8 -2 -29 -9 -48 -17 -31 -13 -32 -16 -19 -32 9 -10 28 -36 44 -58 16
-22 82 -112 146 -200 l117 -160 -72 -3 c-45 -2 -76 2 -85 9 -9 7 -74 94 -146
193 -72 100 -140 189 -150 198 -15 13 -36 17 -84 17 l-64 -1 0 -209 0 -209
-70 0 -70 0 -1 345 c0 190 -1 363 -1 385 0 22 1 94 1 160 l1 120 183 2 c100 2
184 0 187 -3 3 -3 25 -9 48 -13z m934 -15 c32 -12 60 -22 63 -22 14 1 96 -100
112 -139 26 -64 24 -189 -4 -251 -61 -136 -170 -189 -390 -189 l-122 0 2 -193
2 -193 -60 4 c-33 2 -66 5 -72 7 -10 4 -13 113 -13 506 l0 501 213 -4 c192 -4
218 -6 269 -27z m-1725 -187 c-3 -3 -12 -4 -19 -1 -8 3 -5 6 6 6 11 1 17 -2
13 -5z m2000 0 c-3 -3 -12 -4 -19 -1 -8 3 -5 6 6 6 11 1 17 -2 13 -5z m-2170
-50 c-3 -3 -12 -4 -19 -1 -8 3 -5 6 6 6 11 1 17 -2 13 -5z m1190 -436 c-3 -8
-6 -5 -6 6 -1 11 2 17 5 13 3 -3 4 -12 1 -19z m-777 -100 c0 -11 -12 -10 -30
2 -12 7 -10 9 8 7 12 0 22 -5 22 -9z m2000 0 c0 -11 -12 -10 -30 2 -12 7 -10
9 8 7 12 0 22 -5 22 -9z m-2460 -12 c0 -3 -4 -8 -10 -11 -5 -3 -10 -1 -10 4 0
6 5 11 10 11 6 0 10 -2 10 -4z m2000 0 c0 -3 -4 -8 -10 -11 -5 -3 -10 -1 -10
4 0 6 5 11 10 11 6 0 10 -2 10 -4z m-1533 -282 c-3 -3 -12 -4 -19 -1 -8 3 -5
6 6 6 11 1 17 -2 13 -5z m2000 0 c-3 -3 -12 -4 -19 -1 -8 3 -5 6 6 6 11 1 17
-2 13 -5z m-790 -170 c-3 -3 -12 -4 -19 -1 -8 3 -5 6 6 6 11 1 17 -2 13 -5z
m-1064 -301 c-7 -2 -21 -2 -30 0 -10 3 -4 5 12 5 17 0 24 -2 18 -5z m2000 0
c-7 -2 -21 -2 -30 0 -10 3 -4 5 12 5 17 0 24 -2 18 -5z m-2396 -649 c-3 -3
-12 -4 -19 -1 -8 3 -5 6 6 6 11 1 17 -2 13 -5z m2000 0 c-3 -3 -12 -4 -19 -1
-8 3 -5 6 6 6 11 1 17 -2 13 -5z m-2170 -50 c-3 -3 -12 -4 -19 -1 -8 3 -5 6 6
6 11 1 17 -2 13 -5z m2000 0 c-3 -3 -12 -4 -19 -1 -8 3 -5 6 6 6 11 1 17 -2
13 -5z"/>
<path d="M1950 3100 l0 -193 113 5 c148 7 202 31 244 111 24 44 22 135 -3 178
-34 58 -96 81 -234 87 l-120 5 0 -193z"/>
<path d="M2820 3086 l1 -206 103 0 c133 0 192 17 239 69 91 101 65 262 -51
313 -36 17 -75 22 -170 26 l-122 5 0 -207z"/>
</g>
</svg>
